<svg
        class="woman"
        width="175"
        height="220"
        viewBox="0 0 175 220"
        fill="none"
        xmlns="http://www.w3.org/2000/svg"
      >
        <path
          d="M81.6672 205C123.457 205 144 203.485 144 201C144 198.515 123.457 196 81.6672 196C39.8774 196 6 198.015 6 200.5C6 202.985 39.8774 205 81.6672 205Z"
          fill="#92E3A9"
        />
        <path
          opacity="0.6"
          d="M81.6672 205C123.457 205 144 203.485 144 201C144 198.515 123.457 196 81.6672 196C39.8774 196 6 198.015 6 200.5C6 202.985 39.8774 205 81.6672 205Z"
          fill="white"
        />
        <path
          d="M73.6917 97.0883C73.6917 97.0883 73.3764 109.741 71.2437 116.524C69.6934 121.166 67.8347 125.698 65.6801 130.09C65.6801 130.09 73.6546 134.413 77.3451 134.73C81.0356 135.046 85.9316 118.369 85.9316 106.964C85.9316 95.5602 81.6661 92.1502 73.6917 97.0883Z"
          fill="white"
          stroke="#263238"
          stroke-width="0.48509"
          stroke-linecap="round"
          stroke-linejoin="round"
        />
        <path
          d="M95.9278 63.9378C95.9278 63.9378 82.9461 63.4533 77.9945 67.1615C73.043 70.8697 71.2441 87.212 69.7048 93.6967L68.1656 100.181C71.7772 101.613 75.4984 102.747 79.2927 103.573C80.739 103.681 82.1764 103.886 83.5952 104.188C83.5952 104.188 87.5083 81.7521 92.1075 75.1929C94.4332 71.8181 96.9991 68.617 99.7852 65.6148C99.7852 65.6148 101.862 63.1178 95.9278 63.9378Z"
          fill="white"
          stroke="#263238"
          stroke-width="0.48509"
          stroke-linecap="round"
          stroke-linejoin="round"
        />
        <path
          d="M106.535 44.0178C107.608 48.1466 109.263 52.0998 111.45 55.7574C115.159 61.9254 116.679 66.2299 128.029 66.5467C139.379 66.8635 145.221 76.162 150.079 103.871C154.938 131.58 157.757 162.178 149.467 181.613C141.178 201.049 116.698 199.148 100.712 193.334C84.726 187.52 81.054 169.278 80.7573 149.544C80.4606 129.81 80.442 98.6349 83.5205 82.8889C86.599 67.1429 95.4822 63.7702 99.488 62.5403C103.494 61.3104 98.2454 53.894 98.2454 53.894L106.535 44.0178Z"
          fill="white"
        />
        <mask
          id="mask0_0_4"
          style="mask-type: luminance"
          maskUnits="userSpaceOnUse"
          x="80"
          y="44"
          width="75"
          height="154"
        >
          <path
            d="M106.535 44.0178C107.608 48.1466 109.263 52.0998 111.45 55.7574C115.159 61.9254 116.679 66.2299 128.029 66.5467C139.379 66.8635 145.221 76.162 150.079 103.871C154.938 131.58 157.757 162.178 149.467 181.613C141.178 201.049 116.698 199.148 100.712 193.334C84.726 187.52 81.054 169.278 80.7573 149.544C80.4606 129.81 80.442 98.6349 83.5205 82.8889C86.599 67.1429 95.4822 63.7702 99.488 62.5403C103.494 61.3104 98.2454 53.894 98.2454 53.894L106.535 44.0178Z"
            fill="white"
          />
        </mask>
        <g mask="url(#mask0_0_4)">
          <g style="mix-blend-mode: multiply" opacity="0.4">
            <path
              d="M138.953 104.561C138.953 104.561 141.661 112.014 136.857 117.81C132.054 123.605 120.167 120.828 122.466 123.53C124.766 126.232 135.058 129.568 136.857 132.27C137.385 132.951 137.695 133.776 137.748 134.637C137.801 135.498 137.594 136.355 137.154 137.096C137.154 137.096 146.612 138.792 147.28 137.189C147.947 135.587 141.716 113.132 141.716 113.132L138.953 104.561Z"
              fill="#92E3A9"
            />
          </g>
          <g style="mix-blend-mode: multiply" opacity="0.4">
            <path
              d="M136.06 145.537C136.06 145.537 142.644 152.767 142.347 154.854C142.05 156.941 136.06 152.152 137.247 155.153C138.434 158.153 143.552 162.998 145.055 165.401C146.557 167.805 152.473 172.073 152.473 172.073L154.587 155.768L154.995 152.916L136.06 145.537Z"
              fill="#92E3A9"
            />
          </g>
        </g>
        <path
          d="M106.535 44.0178C107.608 48.1466 109.263 52.0998 111.45 55.7574C115.159 61.9254 116.679 66.2299 128.029 66.5467C139.379 66.8635 145.221 76.162 150.079 103.871C154.938 131.58 157.757 162.178 149.467 181.613C141.178 201.049 116.698 199.148 100.712 193.334C84.726 187.52 81.054 169.278 80.7573 149.544C80.4606 129.81 80.442 98.6349 83.5205 82.8889C86.599 67.1429 95.4822 63.7702 99.488 62.5403C103.494 61.3104 98.2454 53.894 98.2454 53.894L106.535 44.0178Z"
          stroke="#263238"
          stroke-width="0.48509"
          stroke-linecap="round"
          stroke-linejoin="round"
        />
        <path
          d="M95.9271 63.9379C97.0746 63.3765 98.2654 62.9092 99.4878 62.5403C103.475 61.3104 98.2452 53.894 98.2452 53.894L106.535 44.0178C107.607 48.1466 109.262 52.0998 111.449 55.7574C114.584 60.9936 116.178 64.8882 123.559 66.1367C121.218 69.5261 119.509 73.3144 118.515 77.3173C116.661 85.3487 112.692 98.2995 105.311 95.2249C98.3009 92.2993 92.9784 75.398 95.9271 63.9379Z"
          fill="white"
        />
        <mask
          id="mask1_0_4"
          style="mask-type: luminance"
          maskUnits="userSpaceOnUse"
          x="95"
          y="44"
          width="29"
          height="52"
        >
          <path
            d="M95.9271 63.9379C97.0746 63.3765 98.2654 62.9092 99.4878 62.5403C103.475 61.3104 98.2452 53.894 98.2452 53.894L106.535 44.0178C107.607 48.1466 109.262 52.0998 111.449 55.7574C114.584 60.9936 116.178 64.8882 123.559 66.1367C121.218 69.5261 119.509 73.3144 118.515 77.3173C116.661 85.3487 112.692 98.2995 105.311 95.2249C98.3009 92.2993 92.9784 75.398 95.9271 63.9379Z"
            fill="white"
          />
        </mask>
        <g mask="url(#mask1_0_4)">
          <g style="mix-blend-mode: multiply" opacity="0.4">
            <path
              d="M115.066 65.9877C117.011 67.3754 119.182 68.4097 121.483 69.0436L123.337 65.8572C123.337 65.8572 115.678 66.8076 108.019 49.0863C106.353 52.3679 103.999 55.2478 101.12 57.5277L110.263 58.7016"
              fill="#92E3A9"
            />
          </g>
        </g>
        <path
          d="M95.9271 63.9379C97.0746 63.3765 98.2654 62.9092 99.4878 62.5403C103.475 61.3104 98.2452 53.894 98.2452 53.894L106.535 44.0178C107.607 48.1466 109.262 52.0998 111.449 55.7574C114.584 60.9936 116.178 64.8882 123.559 66.1367C121.218 69.5261 119.509 73.3144 118.515 77.3173C116.661 85.3487 112.692 98.2995 105.311 95.2249C98.3009 92.2993 92.9784 75.398 95.9271 63.9379Z"
          stroke="#263238"
          stroke-width="0.48509"
          stroke-linecap="round"
          stroke-linejoin="round"
        />
        <path
          d="M138.192 101.691L129.364 93.8086"
          stroke="#263238"
          stroke-width="0.48509"
          stroke-linecap="round"
          stroke-linejoin="round"
        />
        <path
          d="M128.029 66.5466C128.029 66.5466 125.433 70.1244 123.467 80.4851C121.501 90.8458 115.622 100.219 109.725 102.175C103.828 104.132 100.898 102.175 100.898 102.175"
          stroke="#263238"
          stroke-width="0.48509"
          stroke-linecap="round"
          stroke-linejoin="round"
        />
        <path
          d="M157.201 100.797C157.201 100.797 161.8 141.792 162.116 148.91C162.431 156.029 159.668 154.165 155.05 152.935C150.432 151.705 124.042 139.891 117.959 137.804C111.877 135.717 110.894 135.028 105.979 135.643C101.677 136.29 97.3438 136.707 92.9976 136.891C89.919 136.891 93.3128 129.791 97.912 128.562C102.511 127.332 102.215 127.63 107.426 128.86C112.637 130.09 120.945 133.798 129.847 135.643C138.749 137.487 146.426 138.121 147.335 137.189C148.244 136.258 141.772 109.424 141.772 109.424L157.201 100.797Z"
          fill="white"
          stroke="#263238"
          stroke-width="0.48509"
          stroke-linecap="round"
          stroke-linejoin="round"
        />
        <path
          d="M123.56 66.1367C126.983 66.5474 130.441 66.5787 133.871 66.2299C137.009 66.0056 140.158 66.4416 143.118 67.5101C146.079 68.5785 148.784 70.256 151.062 72.4351C155.977 77.3546 160.335 93.3987 162.19 97.4237C164.044 101.449 164.638 103.275 164.638 103.275L141.92 113.151L132.406 86.0009"
          fill="white"
        />
        <mask
          id="mask2_0_4"
          style="mask-type: luminance"
          maskUnits="userSpaceOnUse"
          x="123"
          y="66"
          width="42"
          height="48"
        >
          <path
            d="M123.56 66.1367C126.983 66.5474 130.441 66.5787 133.871 66.2299C137.009 66.0056 140.158 66.4416 143.118 67.5101C146.079 68.5785 148.784 70.256 151.062 72.4351C155.977 77.3546 160.335 93.3987 162.19 97.4237C164.044 101.449 164.638 103.275 164.638 103.275L141.92 113.151L132.406 86.0009"
            fill="white"
          />
        </mask>
        <g mask="url(#mask2_0_4)">
          <g style="mix-blend-mode: multiply" opacity="0.4">
            <path
              d="M123.801 65.9318C128.266 66.4147 132.756 66.6324 137.247 66.5839C139.959 66.6237 142.63 67.2658 145.066 68.4642C147.503 69.6626 149.646 71.3877 151.341 73.5159C155.551 78.3422 164.174 103.089 164.174 103.089L158.889 105.362C158.889 105.362 153.14 78.3422 146.556 74.1309C140.768 70.664 134.093 68.9855 127.362 69.3046C125.508 69.3046 123.43 69.1741 122.114 69.0437L123.801 65.9318Z"
              fill="#92E3A9"
            />
          </g>
        </g>
        <path
          d="M123.56 66.1367C126.983 66.5474 130.441 66.5787 133.871 66.2299C137.009 66.0056 140.158 66.4416 143.118 67.5101C146.079 68.5785 148.784 70.256 151.062 72.4351C155.977 77.3546 160.335 93.3987 162.19 97.4237C164.044 101.449 164.638 103.275 164.638 103.275L141.92 113.151L132.406 86.0009"
          stroke="#263238"
          stroke-width="0.48509"
          stroke-linecap="round"
          stroke-linejoin="round"
        />
        <path
          d="M152.434 169.334C152.434 169.334 143.162 160.948 136.727 160.464"
          stroke="#263238"
          stroke-width="0.48509"
          stroke-linecap="round"
          stroke-linejoin="round"
        />
        <path
          d="M135.744 156.438C140.303 158.457 144.732 160.76 149.004 163.333"
          stroke="#263238"
          stroke-width="0.48509"
          stroke-linecap="round"
          stroke-linejoin="round"
        />
        <path
          d="M78.2496 35.4255C74.6266 20.9644 78.3886 7.54683 86.6523 5.45654C94.9161 3.36624 104.552 13.3948 108.175 27.8559C111.798 42.317 108.036 55.7345 99.7725 57.8248C91.5088 59.9151 81.8726 49.8866 78.2496 35.4255Z"
          fill="white"
        />
        <mask
          id="mask3_0_4"
          style="mask-type: luminance"
          maskUnits="userSpaceOnUse"
          x="76"
          y="5"
          width="34"
          height="54"
        >
          <path
            d="M78.2497 35.4253C74.6266 20.9642 78.3887 7.54668 86.6524 5.45639C94.9161 3.36609 104.552 13.3946 108.175 27.8557C111.798 42.3168 108.036 55.7344 99.7726 57.8247C91.5088 59.915 81.8727 49.8865 78.2497 35.4253Z"
            fill="white"
          />
        </mask>
        <g mask="url(#mask3_0_4)">
          <g style="mix-blend-mode: multiply" opacity="0.4">
            <path
              d="M101.342 57.2667C102.381 55.1797 103.753 50.1671 102.77 46.9992C101.268 42.1916 93.1823 36.7876 93.1823 36.7876C93.1823 36.7876 96.8914 37.6821 100.6 38.2598C104.309 38.8374 109.447 39.676 109.447 39.676L108.167 48.695C106.442 52.7572 104.347 56.0741 101.342 57.2667Z"
              fill="#92E3A9"
            />
          </g>
        </g>
        <path
          d="M78.2496 35.4255C74.6266 20.9644 78.3886 7.54683 86.6523 5.45654C94.9161 3.36624 104.552 13.3948 108.175 27.8559C111.798 42.317 108.036 55.7345 99.7725 57.8248C91.5088 59.9151 81.8726 49.8866 78.2496 35.4255Z"
          stroke="#263238"
          stroke-width="0.48509"
          stroke-linecap="round"
          stroke-linejoin="round"
        />
        <g style="mix-blend-mode: multiply" opacity="0.4">
          <path
            d="M108.056 49.4963C109.466 52.2915 113.842 61.0123 118.367 63.882C119.644 64.709 121.039 65.3372 122.503 65.7454"
            fill="#92E3A9"
          />
        </g>
        <g style="mix-blend-mode: multiply" opacity="0.4">
          <path
            d="M100.674 95.2249C100.674 95.2249 99.4688 112.387 100.674 116.617C101.88 120.847 106.664 120.53 104.272 122.934C101.666 125.114 98.852 127.031 95.871 128.655L91.6798 132.885L90.7339 126.475C90.7339 126.475 93.7383 127.388 96.7426 116.841C98.66 109.76 99.9753 102.529 100.674 95.2249Z"
            fill="#92E3A9"
          />
        </g>
        <path
          d="M86.3948 39.1543C87.3694 40.5733 88.0041 42.1996 88.2494 43.906C88.2494 44.465 88.2494 44.9682 88.2494 45.3781C88.2328 45.5741 88.2586 45.7712 88.3252 45.9561C88.3918 46.141 88.4974 46.3093 88.6349 46.4492C88.7724 46.5891 88.9384 46.6974 89.1216 46.7667C89.3048 46.8359 89.5007 46.8644 89.6959 46.8502L91.9028 46.6825"
          stroke="#263238"
          stroke-width="0.48509"
          stroke-linecap="round"
          stroke-linejoin="round"
        />
        <path
          d="M95.8345 51.1547C96.8597 51.2693 97.8897 50.9859 98.7137 50.3623C99.5377 49.7387 100.093 48.8223 100.267 47.8005"
          stroke="#263238"
          stroke-width="0.48509"
          stroke-linecap="round"
          stroke-linejoin="round"
        />
        <path
          d="M92.4961 38.5953L93.6088 40.8315C94.2591 41.1432 94.9937 41.23 95.6981 41.0783C96.4026 40.9266 97.0373 40.545 97.5033 39.9929"
          stroke="#263238"
          stroke-width="0.48509"
          stroke-linecap="round"
          stroke-linejoin="round"
        />
        <path
          d="M83.6318 41.9496L85.2823 44.1857C85.2823 44.1857 87.5077 44.1857 87.5077 42.5086"
          stroke="#263238"
          stroke-width="0.48509"
          stroke-linecap="round"
          stroke-linejoin="round"
        />
        <path
          d="M74.8414 22.1227C71.1324 11.1471 80.1639 -0.238447 93.6463 0.00379881C107.129 0.246045 116.568 13.495 121.038 22.5699C125.217 26.7785 128.81 31.5362 131.72 36.7133C137.283 46.2727 137.283 51.8257 141.549 57.9937C145.814 64.1617 158.425 64.4784 165.806 72.5098C173.187 80.5412 173.224 89.7838 169.793 95.9517C166.362 102.12 164.23 110.132 168.569 115.685C172.909 121.238 177.156 128.729 173.78 141.308C173.146 144.116 171.672 146.663 169.558 148.608C167.444 150.553 164.789 151.802 161.948 152.19C162.134 151.139 162.19 150.069 162.115 149.004C161.874 143.413 159.055 117.679 157.813 106.294L164.563 103.35C164.563 103.35 163.951 101.486 162.115 97.4984C160.279 93.5107 155.977 77.4293 150.988 72.5098C148.708 70.334 146.002 68.66 143.042 67.5948C140.082 66.5295 136.933 66.0964 133.797 66.3232C130.367 66.672 126.909 66.6408 123.486 66.2301C121.418 65.9772 119.443 65.2224 117.73 64.031C116.018 62.8395 114.62 61.2471 113.657 59.3913L113.174 58.59V58.4968C112.655 57.6396 112.136 56.7266 111.561 55.7762C110.23 53.5218 109.088 51.1594 108.149 48.7138C109.085 45.7978 109.585 42.7584 109.632 39.6948C103.587 39.4898 86.8588 37.9991 78.4021 28.0111C77.9014 27.3962 77.4378 26.7813 77.0298 26.1477C77.1506 29.2917 77.5981 32.4144 78.365 35.4649C79.9255 42.4716 83.4449 48.8847 88.5093 53.95L89.3995 54.714L89.9558 55.1613C90.234 55.3663 90.4936 55.5713 90.7718 55.739C90.9671 55.8826 91.1715 56.0133 91.3838 56.1303C91.6351 56.2992 91.8951 56.4547 92.1627 56.5961L92.8118 56.9315L93.5907 57.2669L94.2398 57.5092L95.0187 57.7514L95.6678 57.9191C97.0533 58.2363 98.492 58.2363 99.8775 57.9191L100.415 57.7328C101.005 58.8457 101.195 60.1292 100.953 61.3665C100.858 61.6783 100.682 61.9594 100.445 62.1818C100.207 62.4042 99.9156 62.56 99.5993 62.6336C98.409 62.993 97.2493 63.448 96.1314 63.9939C96.8378 71.5267 98.0772 78.9993 99.8404 86.3551C102.919 99.3059 99.5437 111.642 95.8532 120.586C92.1627 129.531 80.813 135.084 76.8258 129.903C72.8386 124.723 74.0625 119.114 76.5105 106.76C78.9585 94.4051 85.4122 76.5348 85.4122 62.9504C85.4122 49.366 77.4378 45.0615 73.432 37.0488C70.5575 31.2535 73.1167 25.1414 74.8414 22.1227Z"
          fill="#263238"
        />
        <path
          d="M78.5874 17.967C78.5874 17.967 92.756 30.4334 106.405 31.7751C120.055 33.1167 121.464 33.0981 121.464 33.0981"
          stroke="white"
          stroke-width="0.345985"
          stroke-linecap="round"
          stroke-linejoin="round"
        />
        <path
          d="M81.6846 8.61279C81.6846 8.61279 94.5364 23.3152 105.163 26.8744C115.789 30.4335 120.222 30.4335 120.222 30.4335"
          stroke="white"
          stroke-width="0.345985"
          stroke-linecap="round"
          stroke-linejoin="round"
        />
        <path
          d="M89.2138 3.28333C89.2138 3.28333 92.7559 14.4639 101.175 19.756"
          stroke="white"
          stroke-width="0.345985"
          stroke-linecap="round"
          stroke-linejoin="round"
        />
        <path
          d="M113.582 45.1172C113.582 45.1172 114.027 59.3724 122.002 61.5899C129.976 63.8074 138.822 59.3724 149.022 64.7018C153.003 66.8538 156.237 70.1728 158.295 74.2173C160.352 78.2618 161.135 82.84 160.539 87.3425"
          stroke="white"
          stroke-width="0.345985"
          stroke-linecap="round"
          stroke-linejoin="round"
        />
        <path
          d="M163.636 147.494C165.749 144.413 167.162 140.903 167.774 137.213C168.386 133.522 168.183 129.742 167.179 126.139C163.636 114.12 160.984 109.666 160.984 109.666"
          stroke="white"
          stroke-width="0.345985"
          stroke-linecap="round"
          stroke-linejoin="round"
        />
        <path
          d="M85.1709 68.261C85.1709 68.261 82.964 85.1809 90.4934 95.8584C98.0227 106.536 93.1453 121.238 93.1453 121.238"
          stroke="white"
          stroke-width="0.345985"
          stroke-linecap="round"
          stroke-linejoin="round"
        />
        <path
          d="M84.7811 52.6827C84.7811 52.6827 84.336 57.5836 90.5486 70.0499C96.7613 82.5162 98.5231 86.5226 98.9682 95.4298"
          stroke="white"
          stroke-width="0.345985"
          stroke-linecap="round"
          stroke-linejoin="round"
        />
        <path
          d="M42.258 194.415C42.258 194.415 32.2992 193.446 26.5316 196.018C20.764 198.589 19.4659 202.782 18.1863 198.925C16.9066 195.067 16.9066 192.794 21.7098 190.222C26.5131 187.651 28.4603 189.253 30.3705 187.315C31.3082 186.304 32.3893 185.438 33.5788 184.744C33.5788 184.744 38.7158 184.092 39.0496 186.999C39.3835 189.906 44.1681 190.856 44.1681 190.856L42.258 194.415Z"
          fill="white"
          stroke="#263238"
          stroke-width="0.48509"
          stroke-miterlimit="10"
        />
        <path
          d="M0.623154 118.685C3.99838 110.971 18.0742 116.263 34.394 129.475C55.5171 146.581 71.9296 150.569 80.7572 151.258V150.979C85.3564 148.817 91.8843 148.724 99.6548 149.991C99.8958 149.637 100.137 149.283 100.359 148.91C115.196 125.785 119.09 121.779 124.005 125.785C128.919 129.792 134.446 135.959 132.61 155.097C132.446 156.602 132.161 158.092 131.757 159.55C139.06 163.038 146.005 167.238 152.49 172.091C151.777 175.35 150.771 178.537 149.486 181.613C141.233 200.993 116.791 199.223 100.823 193.39C95.9946 196.014 90.7484 197.774 85.3193 198.589C72.6714 200.173 64.1221 199.707 59.1148 197.788L50.6211 204.757C37.2512 194.564 25.9243 181.919 17.2397 167.489C13.0058 160.293 9.25139 152.823 6.00125 145.128C0.715866 133.108 -1.08301 122.561 0.623154 118.685Z"
          fill="#263238"
        />
        <path
          d="M100.397 148.836C98.6287 151.614 96.6965 154.283 94.6107 156.83L36.9536 146.432L55.1094 131.823L106.535 139.388C104.774 142.109 102.715 145.276 100.397 148.836Z"
          fill="#92E3A9"
          stroke="#263238"
          stroke-width="0.48509"
          stroke-linecap="round"
          stroke-linejoin="round"
        />
        <path
          opacity="0.5"
          d="M100.397 148.836C98.6287 151.614 96.6965 154.283 94.6107 156.83L36.9536 146.432L55.1094 131.823L106.535 139.388C104.774 142.109 102.715 145.276 100.397 148.836Z"
          fill="white"
          stroke="#263238"
          stroke-width="0.52825"
          stroke-linecap="round"
          stroke-linejoin="round"
        />
        <path
          d="M87.5641 114.604L96.54 154.426C95.9094 155.264 95.2603 156.084 94.6854 156.886L36.9541 146.432L25.5488 104.728L87.5641 114.604Z"
          fill="#92E3A9"
          stroke="#263238"
          stroke-width="0.48509"
          stroke-linecap="round"
          stroke-linejoin="round"
        />
        <path
          d="M58.1872 137.767C59.3036 138.085 60.4885 138.065 61.5937 137.71C62.6989 137.355 63.6752 136.679 64.4003 135.769C65.1255 134.859 65.5673 133.754 65.6704 132.593C65.7736 131.431 65.5334 130.265 64.9801 129.24C64.4268 128.216 63.5848 127.377 62.5597 126.831C61.5346 126.285 60.3719 126.055 59.2171 126.169C58.0623 126.284 56.9668 126.738 56.0678 127.475C55.1688 128.212 54.5062 129.199 54.1629 130.313C53.7241 131.838 53.9004 133.475 54.6535 134.869C55.4067 136.264 56.6761 137.305 58.1872 137.767Z"
          fill="white"
        />
        <path
          opacity="0.5"
          d="M87.5641 114.604L96.54 154.426C95.9094 155.264 95.2603 156.084 94.6854 156.886L36.9541 146.432L25.5488 104.728L87.5641 114.604Z"
          fill="white"
          stroke="#263238"
          stroke-width="0.52825"
          stroke-linecap="round"
          stroke-linejoin="round"
        />
        <path
          d="M58.1872 137.767C59.3036 138.085 60.4885 138.065 61.5937 137.71C62.6989 137.355 63.6752 136.679 64.4003 135.769C65.1255 134.859 65.5673 133.754 65.6704 132.593C65.7736 131.431 65.5334 130.265 64.9801 129.24C64.4268 128.216 63.5848 127.377 62.5597 126.831C61.5346 126.285 60.3719 126.055 59.2171 126.169C58.0623 126.284 56.9668 126.738 56.0678 127.475C55.1688 128.212 54.5062 129.199 54.1629 130.313C53.7241 131.838 53.9004 133.475 54.6535 134.869C55.4067 136.264 56.6761 137.305 58.1872 137.767Z"
          fill="white"
          stroke="#263238"
          stroke-width="0.52825"
          stroke-linecap="round"
          stroke-linejoin="round"
        />
        <path
          d="M61.0623 194.546C61.0623 194.546 68.9997 200.471 73.4691 202.931C77.9385 205.391 79.3665 204.552 83.6504 208.652C87.9344 212.751 91.5693 215.602 92.5893 217.242C93.6092 218.882 94.8332 220.503 95.4452 216.832C95.6954 214.949 95.4505 213.032 94.7347 211.273C94.0189 209.515 92.8572 207.975 91.3653 206.807C88.5278 204.757 84.6519 203.937 84.6519 201.217C84.7453 200.029 84.3729 198.851 83.614 197.936C82.8552 197.02 81.7701 196.439 80.5905 196.316C78.3465 196.316 76.8814 198.552 72.6531 196.316C69.7468 194.512 67.3618 191.974 65.7357 188.955L61.0623 194.546Z"
          fill="white"
          stroke="#263238"
          stroke-width="0.48509"
          stroke-miterlimit="10"
        />
        <path
          d="M131.274 161.6C131.274 161.6 122.502 182.675 102.288 192.253"
          stroke="white"
          stroke-width="0.345985"
          stroke-miterlimit="10"
        />
        <path
          d="M63.0837 178.856C63.0837 178.856 50.5285 172.539 32.1317 140.599"
          stroke="white"
          stroke-width="0.345985"
          stroke-miterlimit="10"
        />
        <path
          d="M96.7431 155.078C96.7431 155.078 83.4461 174.663 67.9423 181.334"
          stroke="white"
          stroke-width="0.345985"
          stroke-miterlimit="10"
        />
      </svg>

      <div style="display: flex; justify-content: center; align-items: center">
        <h1 class="welcome">Добро пожаловать в HRev!</h1>
        <svg
          width="767"
          height="835"
          viewBox="0 0 767 835"
          fill="none"
          xmlns="http://www.w3.org/2000/svg"
        >
          <path
            d="M622.682 298.76C594.789 166.031 707.904 74.7657 767 0H0V817.277C72.5737 818.639 476.498 817.731 476.498 817.731C476.498 817.731 463.575 873.124 503.869 785.494C541.448 703.766 595.933 696.501 650.053 601.606C704.172 506.712 655.029 452.68 622.682 298.76Z"
            fill="#A66DF2"
            style="position: absolute"
          />
        </svg>